<?xml version="1.0" standalone="no"?>
<!DOCTYPE svg PUBLIC "-//W3C//DTD SVG 1.1//EN" "http://www.w3.org/Graphics/SVG/1.1/DTD/svg11.dtd" >
<svg xmlns="http://www.w3.org/2000/svg">
  <metadata>Generated by IcoMoon</metadata>
  <defs>
    <font id="icomoon" horiz-adv-x="1024">
      <font-face units-per-em="1024" ascent="960" descent="-64"/>
      <missing-glyph horiz-adv-x="1024"/>
      <glyph unicode="&#x20;" horiz-adv-x="512" d=""/>
      <glyph unicode="&#xe900;"
             d="M512-64c282.77 0 512 229.23 512 512s-229.23 512-512 512c-282.77 0-512-229.23-512-512s229.23-512 512-512z"/>
      <glyph unicode="&#xe901;"
             d="M508.035 487.239l90.383 102.184c9.076 10.261 24.752 11.222 35.013 2.146 0.055-0.048 0.109-0.097 0.164-0.146 10.297-9.272 11.198-25.11 2.017-35.489l-93.28-105.459 103.128-110.55c0.099-0.106 0.196-0.212 0.293-0.32 9.086-10.091 8.271-25.637-1.82-34.724-10.323-9.295-26.191-8.604-35.667 1.554l-99.241 106.384-93.781-106.025c-9.076-10.261-24.752-11.222-35.013-2.146-0.055 0.048-0.109 0.097-0.164 0.146-10.297 9.272-11.198 25.11-2.017 35.489l96.678 109.301-89.519 95.962c-0.099 0.106-0.196 0.212-0.293 0.32-9.086 10.091-8.271 25.637 1.82 34.724 10.323 9.295 26.191 8.604 35.667-1.554l85.632-91.796z"/>
      <glyph unicode="&#xe902;"
             d="M512-64c282.77 0 512 229.23 512 512s-229.23 512-512 512c-282.77 0-512-229.23-512-512s229.23-512 512-512z"/>
      <glyph unicode="&#xe903;"
             d="M473.348 373.080l168.696 194.902c8.276 9.561 22.735 10.603 32.296 2.328 0.113-0.098 0.225-0.197 0.336-0.297 9.638-8.678 10.558-23.472 2.071-33.278l-180.467-208.501c-5.557-6.421-13.904-9-21.682-7.495-8.167-2.121-17.205 0.272-23.241 6.975l-103.905 115.399c-8.629 9.583-7.855 24.347 1.728 32.975s24.347 7.855 32.975-1.728l91.193-101.28z"/>
      <glyph unicode="&#xe904;"
             d="M201.143 95.262c-42.92 0-75.735 32.815-75.735 75.733v2.525l7.571 194.387c2.525 37.865 17.675 73.21 45.444 100.979l426.639 424.114c88.358 88.358 232.252 88.358 320.61 0 88.36-88.36 88.36-232.252 0-320.61l-424.114-424.114c-27.769-27.769-63.114-42.92-100.983-45.445l-199.431-7.569zM764.106 860.181c-32.82 0-65.639-12.619-88.36-37.863l-424.114-424.12c-10.1-10.094-15.15-20.194-15.15-32.815l-7.569-169.142 166.618 7.575c12.619 0 25.244 5.044 32.813 15.144l424.12 424.114c50.489 50.495 50.489 128.754 0 179.243-22.719 22.719-55.539 37.863-88.358 37.863zM890.329-56.211h-807.839c-27.77 0-50.489 22.719-50.489 50.489s22.719 50.494 50.489 50.494h807.839c27.769 0 50.488-22.725 50.488-50.494s-22.719-50.489-50.488-50.489z"/>
      <glyph unicode="&#xe905;"
             d="M670.696 716.289c0-41.827 33.912-75.733 75.739-75.733 41.823 0 75.735 33.906 75.735 75.733s-33.912 75.733-75.735 75.733c-41.827 0-75.739-33.906-75.739-75.733z"/>
      <glyph unicode="&#xe906;" glyph-name="passwordunsee"
             d="M1015.961 457.999h-0.169c-38.941 100.4-104.192 186.675-186.811 249.414l45.162 40.898c13.459 12.199 14.448 32.952 2.192 46.365l-4.544 4.962c-12.237 13.414-33.075 14.409-46.532 2.21l-58.868-53.35c-76.972 43.226-164.941 67.759-258.433 67.759-229.825 0-426.353-148.245-507.816-358.257h-0.142c0.020-0.084 0.038-0.124 0.084-0.207-0.046-0.040-0.065-0.124-0.084-0.169h0.142c37.332-96.982 98.823-180.899 176.629-243.32l-55.004-49.855c-13.459-12.199-14.447-32.946-2.21-46.347l4.542-5c12.238-13.395 33.075-14.382 46.553-2.19l67.132 60.851c79.704-47.825 171.893-75.157 270.174-75.157 229.868 0 426.378 149.363 507.834 361.018h0.169c-0.040 0.045-0.065 0.129-0.084 0.169 0.020 0.083 0.045 0.122 0.084 0.207zM75.157 457.792c77.074 169.399 241.646 286.759 432.801 286.759 72.365 0 140.884-16.825 202.318-46.896l-100.6-91.134c-29.063 19.447-64.057 30.774-101.7 30.774-100.909 0-182.714-81.476-182.714-182.024 0-31.336 7.933-60.811 21.948-86.567l-117.011-105.995c-66.124 49.815-119.739 116.954-155.042 195.083zM618.127 455.271c0-60.567-49.337-109.717-110.144-109.717-21.852 0-42.21 6.325-59.326 17.283l157.336 142.534c7.772-15.002 12.134-32.034 12.134-50.1zM397.852 455.271c0 60.613 49.299 109.743 110.131 109.743 16.12 0 31.434-3.45 45.242-9.653l-149.505-135.439c-3.799 11.081-5.867 22.988-5.867 35.349zM507.958 168.912c-77.114 0-149.892 19.262-214.363 53.408l100.244 90.824c31.253-24.971 70.944-39.891 114.143-39.891 100.904 0 182.716 81.476 182.716 182.018 0 36.836-10.996 71.111-29.882 99.779l114.673 103.87c70.833-50.125 128.196-119.577 165.315-201.129-77.094-170.653-241.666-288.88-432.846-288.88z"/>
      <glyph unicode="&#xe907;"
             d="M828.981 707.412l-62.59 41.085c-76.972 43.226-164.941 67.759-258.433 67.759-229.825 0-426.353-148.245-507.816-358.257 37.332-97.358 98.823-181.275 176.629-243.696l61.013-42.541c79.704-47.825 171.893-75.157 270.174-75.157 229.868 0 426.378 149.363 507.834 361.018-38.941 100.775-104.192 187.051-186.811 249.789zM75.157 457.792c77.074 169.399 241.646 286.759 432.801 286.759 72.365 0 140.884-16.825 202.318-46.896l-100.6-91.134c-29.063 19.447-64.057 30.774-101.7 30.774-100.909 0-182.714-81.476-182.714-182.024 0-31.336 7.933-60.811 21.948-86.567l-117.011-105.995c-66.124 49.815-119.739 116.954-155.042 195.083zM618.127 455.271c0-60.567-49.337-109.717-110.144-109.717-21.852 0-42.21 6.325-59.326 17.283l157.336 142.534c7.772-15.002 12.134-32.034 12.134-50.1zM397.852 455.271c0 60.613 49.299 109.743 110.131 109.743 16.12 0 31.434-3.45 45.242-9.653l-149.505-135.439c-3.799 11.081-5.867 22.988-5.867 35.349zM507.958 168.912c-77.114 0-149.892 19.262-214.363 53.408l100.244 90.824c31.253-24.971 70.944-39.891 114.143-39.891 100.904 0 182.716 81.476 182.716 182.018 0 36.836-10.996 71.111-29.882 99.779l114.673 103.87c70.833-50.125 128.196-119.577 165.315-201.129-77.094-170.653-241.666-288.88-432.846-288.88z"/>
      <glyph unicode="&#xe908;"
             d="M622.933 453.689c0-62.838-50.94-113.778-113.778-113.778s-113.778 50.94-113.778 113.778c0 62.838 50.94 113.778 113.778 113.778s113.778-50.94 113.778-113.778z"/>
      <glyph unicode="&#xe909;"
             d="M597.333 618.667c18.963-18.963 37.926-37.926 56.889-56.889 28.444-28.444 134.737 92.493 131.349 95.934-17.571 17.844-74.46 46.289-94.076 46.289-18.827 0-50.214-28.444-94.162-85.333z"/>
      <glyph unicode="&#xe90a;"
             d="M199.111 289.215c18.963-26.884 47.407-49.808 85.333-68.771 56.889-28.444 117.166 81.892 113.778 85.333-17.571 17.844-56.889 56.889-56.889 56.889-18.827 0-66.234-24.484-142.222-73.452z"/>
      <glyph unicode="&#xe90b;" glyph-name="password"
             d="M844.907 727.36c-18.453 45.547-44.587 86.293-77.547 120.96-32.96 34.987-71.573 62.613-114.773 82.027-44.693 19.947-91.947 30.080-140.587 30.080s-96-10.133-140.693-30.187c-43.2-19.307-81.707-46.933-114.773-81.92-33.28-35.093-59.413-75.84-77.547-120.96-18.88-46.72-28.48-96.427-28.48-147.84v-501.547c0-40.96 31.68-74.24 70.72-74.24h581.227c39.040 0 70.72 33.28 70.507 74.24v442.667l0.213 20.373v38.507c0.213 51.2-9.387 100.907-28.267 147.84zM399.68 863.147h0.213l1.387 0.533c34.88 15.893 72.107 23.893 110.613 23.893 38.293 0 75.627-8.107 110.72-23.68 34.027-15.36 64.96-37.44 91.733-65.493 26.987-28.48 48-61.44 62.827-98.133 15.467-38.187 23.253-78.72 23.253-120.747v-31.573h-577.067v31.68c0 41.6 7.787 82.133 23.253 120.64 14.933 37.013 36.16 69.973 62.827 98.027 26.56 27.947 56.747 49.813 90.24 64.853zM800.747 475.307v-397.227c0-0.64-0.107-1.173-0.213-1.493h-576.96c-0.107 0.32-0.213 0.853-0.213 1.493v397.227h577.387zM478.293 311.467v-95.467c0-18.667 15.147-33.813 33.813-33.813s33.813 15.147 33.813 33.813v95.68c17.92 11.52 28.693 30.933 28.693 52.48 0 34.56-28.053 62.613-62.613 62.613s-62.613-28.053-62.613-62.613c0.107-21.227 11.093-41.28 28.907-52.693z"/>
      <glyph unicode="&#xe90c;" glyph-name="user"
             d="M863.314 125.714c-19.2 45.371-46.743 86.171-81.714 121.143s-75.771 62.514-121.143 81.714c-15.429 6.514-31.314 12-47.314 16.457 45.257 15.314 86.743 40.914 121.486 75.657 59.429 59.429 92.229 138.514 92.229 222.514s-32.686 163.086-92.229 222.514c-59.429 59.429-138.514 92.229-222.514 92.229s-163.086-32.686-222.514-92.229c-59.429-59.429-92.229-138.514-92.229-222.514s32.686-163.086 92.229-222.514c34.743-34.743 76.229-60.343 121.486-75.657-16-4.457-31.886-9.829-47.314-16.457-45.371-19.2-86.171-46.743-121.143-81.714s-62.514-75.771-81.714-121.143c-19.886-47.086-29.943-96.914-29.943-148.457 0-22.743 18.4-41.143 41.143-41.143s41.143 18.4 41.143 41.143c0 79.886 31.086 154.971 87.543 211.429s131.543 87.543 211.429 87.543c79.886 0 154.971-31.086 211.429-87.543s87.543-131.543 87.543-211.429c0-22.743 18.4-41.143 41.143-41.143s41.143 18.4 41.143 41.143c-0.229 51.543-10.286 101.371-30.171 148.457zM279.543 643.2c0 128.229 104.343 232.457 232.457 232.457s232.457-104.229 232.457-232.457c0-128.229-104.229-232.457-232.457-232.457s-232.457 104.343-232.457 232.457z"/>
      <glyph unicode="&#xe90d;"
             d="M157.538 920.615c-65.255 0-118.154-52.899-118.154-118.154v-708.923c0-65.255 52.899-118.154 118.154-118.154h708.923c65.255 0 118.154 52.899 118.154 118.154v708.923c0 65.255-52.899 118.154-118.154 118.154h-708.923zM157.538 960h708.923c87.006 0 157.538-70.532 157.538-157.538v-708.923c0-87.006-70.532-157.538-157.538-157.538h-708.923c-87.006 0-157.538 70.532-157.538 157.538v708.923c0 87.006 70.532 157.538 157.538 157.538z"/>
      <glyph unicode="&#xe90e;"
             d="M657.207 465.468h-127.487v128.311c0 13.744-4.261 24.887-18.005 24.887-13.747 0-17.14-11.143-17.14-24.887v-128.311h-128.354c-13.745 0-24.888-3.427-24.888-17.171 0-13.747 11.143-17.867 24.888-17.867h128.354v-127.618c0-13.744 3.393-24.887 17.14-24.887 13.744 0 18.005 11.143 18.005 24.887v127.618h127.487c13.747 0 24.889 4.121 24.889 17.867 0 13.744-11.143 17.171-24.889 17.171z"/>
      <glyph unicode="&#xe90f;" glyph-name="addicon"
             d="M25.6 448c0-268.672 217.747-486.4 486.4-486.4 268.672 0 486.4 217.747 486.4 486.4 0 268.672-217.747 486.4-486.4 486.4-268.672 0-486.4-217.747-486.4-486.4zM0 448c0 282.77 229.168 512 512 512 282.77 0 512-229.168 512-512 0-282.77-229.168-512-512-512-282.77 0-512 229.168-512 512zM642.475 454.55h-111.475v108.675c0 6.965-5.635 12.6-12.6 12.6s-12.6-5.635-12.6-12.6v-108.675h-109.025c-6.965 0-12.6-5.635-12.6-12.6s5.635-12.6 12.6-12.6h109.025v-109.025c0-6.965 5.635-12.6 12.6-12.6s12.6 5.635 12.6 12.6v109.025h111.475c6.965 0 12.6 5.635 12.6 12.6s-5.635 12.6-12.6 12.6z"/>
      <glyph unicode="&#xe910;" glyph-name="nomessage"
             d="M807.114 156.332c11.287 0 20.384 9.102 20.384 20.384v254.871c0 178.625-144.784 323.396-323.396 323.396s-323.396-144.771-323.396-323.396v-254.871c0-11.263 9.122-20.384 20.384-20.384h606.024zM807.114 96.097h-606.024c-44.53 0-80.62 36.090-80.62 80.62v254.871c0 211.893 171.753 383.632 383.632 383.632s383.632-171.738 383.632-383.632v-254.871c0-44.541-36.057-80.62-80.62-80.62zM587.599 859.013c0-55.793-45.211-101.048-101.004-101.048-55.749 0-101.004 45.255-101.004 101.048 0 55.749 45.255 101.004 101.004 101.004 55.793 0 101.004-45.255 101.004-101.004zM545.524 113.073c-6.212 15.43 1.261 32.974 16.69 39.186s32.974-1.261 39.186-16.69c5.489-13.633 8.257-29.031 8.257-44.61 0-68.097-54.935-123.033-123.033-123.033-68.159 0-123.033 54.909-123.033 123.033 0 15.519 2.748 30.889 8.171 44.506 6.154 15.453 23.671 22.991 39.124 16.837s22.991-23.671 16.837-39.124c-2.498-6.272-3.897-14.093-3.897-22.218 0-34.865 27.914-62.797 62.797-62.797 34.83 0 62.797 27.967 62.797 62.797 0 8.126-1.398 15.904-3.899 22.114z"/>
      <glyph unicode="&#xe911;"
             d="M807.114 156.332c11.287 0 20.384 9.102 20.384 20.384v254.871c0 178.625-144.784 323.396-323.396 323.396s-323.396-144.771-323.396-323.396v-254.871c0-11.263 9.122-20.384 20.384-20.384h606.024zM807.114 96.097h-606.024c-44.53 0-80.62 36.090-80.62 80.62v254.871c0 211.893 171.753 383.632 383.632 383.632s383.632-171.738 383.632-383.632v-254.871c0-44.541-36.057-80.62-80.62-80.62z"/>
      <glyph unicode="&#xe912;"
             d="M587.599 859.013c0-55.793-45.211-101.048-101.004-101.048-55.749 0-101.004 45.255-101.004 101.048 0 55.749 45.255 101.004 101.004 101.004 55.793 0 101.004-45.255 101.004-101.004z"/>
      <glyph unicode="&#xe913;"
             d="M545.524 113.073c-6.212 15.43 1.261 32.974 16.69 39.186s32.974-1.261 39.186-16.69c5.489-13.633 8.257-29.031 8.257-44.61 0-68.097-54.935-123.033-123.033-123.033-68.159 0-123.033 54.909-123.033 123.033 0 15.519 2.748 30.889 8.171 44.506 6.154 15.453 23.671 22.991 39.124 16.837s22.991-23.671 16.837-39.124c-2.498-6.272-3.897-14.093-3.897-22.218 0-34.865 27.914-62.797 62.797-62.797 34.83 0 62.797 27.967 62.797 62.797 0 8.126-1.398 15.904-3.899 22.114z"/>
      <glyph unicode="&#xe914;"
             d="M675.284 375.069c-129.861 0-235.134 105.273-235.134 235.134s105.273 235.134 235.134 235.134c129.861 0 235.134-105.273 235.134-235.134s-105.273-235.134-235.134-235.134z"/>
      <glyph unicode="&#xe915;"
             d="M675.284 435.304c96.594 0 174.899 78.305 174.899 174.899s-78.305 174.899-174.899 174.899c-96.594 0-174.899-78.305-174.899-174.899s78.305-174.899 174.899-174.899z"/>
      <glyph unicode="&#xe916;" glyph-name="unchosenbtm"
             d="M512 896c247.429 0 448-200.571 448-448s-200.571-448-448-448c-247.429 0-448 200.571-448 448s200.571 448 448 448zM512 938.667c-270.994 0-490.667-219.673-490.667-490.667s219.673-490.667 490.667-490.667c270.994 0 490.667 219.673 490.667 490.667s-219.673 490.667-490.667 490.667z"/>
      <glyph unicode="&#xe917;" glyph-name="unchosen"
             d="M85.333 789.671v-683.342c0-46.881 38.092-84.995 84.995-84.995h683.342c46.881 0 84.995 38.092 84.995 84.995v683.342c0 46.881-38.092 84.995-84.995 84.995h-683.342c-46.881 0-84.995-38.092-84.995-84.995zM28.444 789.671c0 78.33 63.593 141.884 141.884 141.884h683.342c78.33 0 141.884-63.593 141.884-141.884v-683.342c0-78.33-63.593-141.884-141.884-141.884h-683.342c-78.33 0-141.884 63.593-141.884 141.884v683.342z"/>
      <glyph unicode="&#xe918;" glyph-name="radiochosen"
             d="M512 0c247.424 0 448 200.576 448 448s-200.576 448-448 448c-247.424 0-448-200.576-448-448s200.576-448 448-448zM512-64c-282.77 0-512 229.23-512 512s229.23 512 512 512c282.77 0 512-229.23 512-512s-229.23-512-512-512zM768 448c0-141.385-114.615-256-256-256s-256 114.615-256 256c0 141.385 114.615 256 256 256s256-114.615 256-256z"/>
      <glyph unicode="&#xe919;" glyph-name="radiounchosen"
             d="M512 0c247.424 0 448 200.576 448 448s-200.576 448-448 448c-247.424 0-448-200.576-448-448s200.576-448 448-448zM512-64c-282.77 0-512 229.23-512 512s229.23 512 512 512c282.77 0 512-229.23 512-512s-229.23-512-512-512z"/>
      <glyph unicode="&#xe91a;" glyph-name="PDFfile"
             d="M593.285 469.588c-11.404 9.734-25.173 16.46-41.315 20.177-11.53 2.69-28.248 4.035-50.154 4.035h-97.042v-281.711h101.654c17.036 0 32.12 1.597 45.254 4.798 13.127 3.207 24.339 7.916 33.628 14.125 9.284 6.215 17.836 14.737 25.654 25.558 7.813 10.827 14.22 24.5 19.216 41.026s7.494 35.484 7.494 56.88c0 25.107-3.688 47.435-11.050 66.969-7.368 19.541-18.483 35.585-33.339 48.142zM591.843 300.773c-4.936-14.927-11.817-26.806-20.657-35.645-6.281-6.281-14.701-11.145-25.27-14.604s-25.143-5.188-43.716-5.188h-60.147v215.222h59.186c22.159 0 38.24-1.922 48.233-5.765 13.836-5.381 25.587-15.985 35.261-31.804 9.668-15.822 14.509-38.468 14.509-67.929 0-21.27-2.469-39.363-7.399-54.287zM787.7 960l-0.601-0.607v0.438h-708.39c-43.47 0-78.708-35.237-78.708-78.708v-865.807c0-43.47 35.238-78.708 78.708-78.708h865.807c43.472 0 78.716 35.238 78.716 78.708v708.39h0.769l-236.3 236.294zM787.099 904.951l181.245-181.251h-161.572c-10.864 0-19.673 8.809-19.673 19.679v161.572zM983.886 15.303c0-21.737-17.619-39.356-39.358-39.356h-865.832c-21.731 0-39.35 17.619-39.35 39.356v865.832c0 21.733 17.619 39.358 39.35 39.358h669.045v-196.787c0-21.739 17.625-39.358 39.358-39.358h196.787v-669.045zM326.179 477.947c-9.356 6.469-20.946 10.858-34.781 13.164-9.866 1.789-24.153 2.69-42.852 2.69h-106.266v-281.711h37.28v114.529h72.253c39.838 0 67.383 8.294 82.63 24.884 15.241 16.587 22.867 36.86 22.867 60.82 0 13.962-2.853 26.771-8.552 38.433-5.705 11.656-13.228 20.718-22.578 27.19zM303.696 373.315c-10.125-8.972-27.227-13.458-51.307-13.458h-72.83v100.693h72.061c16.91 0 28.5-0.835 34.781-2.492 9.734-2.696 17.582-8.232 23.539-16.627 5.957-8.389 8.936-18.478 8.936-30.26 0-16.274-5.062-28.891-15.181-37.856zM690.904 212.090h37.28v127.98h132.208v33.244h-132.208v87.242h152.769v33.244h-190.049v-281.711z"/>
      <glyph unicode="&#xe91b;" glyph-name="moreyinfor"
             d="M959.65 695.217c0-11.2-3.733-22.517-11.2-31.967l-397.717-494.433c-9.683-12.017-24.267-19.017-39.783-19.017-15.4 0-30.1 7-39.667 19.017l-395.617 492.333c-17.617 21.933-14.117 54.017 7.817 71.633s54.017 14.117 71.633-7.817l355.95-442.867 357.933 445.083c17.617 21.933 49.7 25.433 71.633 7.817 12.483-10.15 19.017-24.85 19.017-39.783z"/>
      <glyph unicode="&#xe91c;" glyph-name="alipay"
             d="M1023.546 258.799v503.907c0 108.625-88.152 196.777-196.841 196.777h-629.929c-108.625 0-196.777-88.152-196.777-196.777v-629.929c0-108.625 88.088-196.777 196.777-196.777h629.929c96.791 0 177.328 69.983 193.769 162.042-52.2 22.578-278.403 120.263-396.239 176.498-89.686-108.625-183.6-173.812-325.168-173.812s-236.054 87.194-224.732 193.895c7.487 70.052 55.526 184.561 264.206 164.923 109.963-10.3 160.312-30.838 249.997-60.454 23.223 42.539 42.48 89.367 57.128 139.199h-397.71v39.408h196.777v70.755h-240.024v43.371h240.024v102.1c0 0 2.174 15.99 19.83 15.99h98.388v-118.090h255.887v-43.371h-255.887v-70.755h208.742c-19.193-78.109-48.303-149.884-84.767-212.576 60.65-21.944 336.621-106.325 336.621-106.325zM283.394 168.283c-149.568 0-173.236 94.418-165.304 133.89 7.868 39.277 51.18 90.521 134.34 90.521 95.575 0 181.172-24.44 283.907-74.462-72.156-93.978-160.826-149.949-252.943-149.949z"/>
      <glyph unicode="&#xe91d;" glyph-name="wechat"
             d="M372.614 345.41c-4.705-2.373-9.522-3.508-15.369-3.508-13.084 0-23.754 7.018-29.718 17.554l-2.409 4.635-93.726 201.498c-1.149 2.373-1.149 4.633-1.149 7.012 0 9.393 7.113 16.413 16.635 16.413 3.562 0 7.113-1.131 10.675-3.51l110.355-77.314c8.262-4.635 17.784-8.145 28.447-8.145 5.971 0 11.824 1.131 17.79 3.51l517.505 227.185c-92.578 107.766-245.62 178.060-418.963 178.060-282.445 0-512.689-188.589-512.689-421.552 0-126.439 68.836-241.218 176.788-318.538 8.256-5.883 14.221-16.413 14.221-26.935 0-3.51-1.149-7.020-2.409-10.53-8.256-31.582-22.593-83.203-22.593-85.47-1.155-3.504-2.419-8.145-2.419-12.903 0-9.393 7.119-16.411 16.639-16.411 3.556 0 7.114 1.131 9.522 3.51l111.504 64.405c8.262 4.647 17.788 8.157 27.31 8.157 4.699 0 10.663-1.137 15.369-2.379 52.195-15.171 109.219-23.437 167.379-23.437 282.445 0 512.689 188.589 512.689 421.552 0 70.3-21.34 136.974-58.159 195.603l-593.226-338.461z"/>
      <glyph unicode="&#xe91e;" glyph-name="money"
             d="M511.503-63.999c-282.488 0-511.503 229.014-511.503 511.497 0 282.488 229.015 511.503 511.503 511.503 282.483 0 511.497-229.015 511.497-511.503 0-282.483-229.014-511.497-511.497-511.497zM549.078 477.509h163.274c20.731 0 37.712 16.165 37.712 36.146 0 19.878-16.845 36.146-37.712 36.146h-401.835c-20.736 0-37.717-16.132-37.717-36.146 0-19.844 16.844-36.146 37.717-36.146h163.268v-120.235h-163.268c-20.736 0-37.717-16.132-37.717-36.146 0-19.985 16.844-36.146 37.717-36.146h163.268v-108.234c0-19.883 16.845-36.146 37.718-36.146 20.867 0 37.712 16.127 37.712 36.146v108.268h163.273c20.731 0 37.712 16.127 37.712 36.146 0 19.98-16.844 36.112-37.712 36.112h-163.41v120.235zM409.2 754.401c-18.757 0-34.098-15.244-34.098-34.102v-68.201c0-18.75 15.205-34.097 34.098-34.097 18.755 0 34.102 15.244 34.102 34.097v68.201c0 18.858-15.244 34.102-34.102 34.102zM613.801 754.401c-18.757 0-34.098-15.244-34.098-34.102v-68.201c0-18.75 15.205-34.097 34.098-34.097 18.755 0 34.102 15.244 34.102 34.097v68.201c0 18.858-15.346 34.102-34.102 34.102z"/>
      <glyph unicode="&#xe91f;" glyph-name="update"
             d="M488.5 885.9c6.7 6.7 15.6 10.1 24.5 10.1s17.7-3.4 24.5-10.1l155.8-155.9c13.5-13.5 13.5-35.4 0-48.9-6.5-6.5-15.2-10.1-24.4-10.1s-17.9 3.6-24.4 10.1l-96.9 96.9v-577.8c0-19.1-15.5-34.6-34.6-34.6s-34.6 15.5-34.6 34.6v577.8l-96.9-96.9c-13.5-13.5-35.4-13.5-48.8 0-13.5 13.5-13.5 35.4-0.1 48.9l155.9 155.9zM925.4 319.6c-19.1 0-34.6-15.5-34.6-34.6v-195.4c0-11.3-9.2-20.6-20.6-20.6h-716.5c-11.3 0-20.6 9.2-20.6 20.6v195.5c0 19.1-15.5 34.6-34.6 34.6s-34.5-15.6-34.5-34.6v-222.9c0-34.3 27.9-62.1 62.1-62.1h771.8c34.3 0 62.1 27.9 62.1 62.1v222.9c0 19-15.5 34.5-34.6 34.5z"/>
      <glyph unicode="&#xe920;"
             d="M1024 448c0-282.77-229.23-512-512-512s-512 229.23-512 512c0 282.77 229.23 512 512 512s512-229.23 512-512z"/>
      <glyph unicode="&#xe921;" d="M785.067 448l-409.6-238.933v477.867z"/>
      <glyph unicode="&#xe922;" glyph-name="wordfile"
             d="M814.983-44.809h-606.903c-93.006 0-168.696 71.142-168.696 158.549v687.102c0 87.409 75.683 158.549 168.696 158.549h494.064c8.497 0 16.67-3.227 22.927-8.956l247.8-229.364c6.85-6.39 10.807-15.348 10.807-24.769v-582.562c0-87.407-75.689-158.549-168.696-158.549zM208.080 891.937c-55.794 0-101.24-40.837-101.24-91.095v-687.102c0-50.258 45.445-91.1 101.24-91.1h606.903c55.794 0 101.246 40.841 101.246 91.1v567.81l-227.326 210.387h-480.823zM921.431 688.993h-207.563c-18.637 0-33.721 15.083-33.721 33.727v192.144c0 18.644 15.083 33.727 33.721 33.727 18.644 0 33.729-15.083 33.729-33.727v-158.424h173.834c18.637 0 33.727-15.083 33.727-33.721 0-18.644-15.090-33.727-33.727-33.727zM792.151 563.774l-118.563-442.656h-68.506l-94.856 353.072-97.491-353.072h-68.506l-118.568 442.656h63.24l89.584-329.357 89.584 329.357h81.676l89.584-329.357 89.584 329.357z"/>
      <glyph unicode="&#xe923;" glyph-name="calendar"
             d="M726.088 496.73h-428.291c-19.716 0-35.672-15.998-35.672-35.767v0c0-19.769 15.955-35.767 35.672-35.767h428.405c19.716 0 35.672 15.998 35.672 35.767v0c-0.114 19.769-16.069 35.767-35.786 35.767v0zM726.088 303.037h-428.291c-19.716 0-35.672-15.998-35.672-35.767v0c0-19.769 15.955-35.767 35.672-35.767h428.405c19.716 0 35.672 15.998 35.672 35.767v0c-0.114 19.769-16.069 35.767-35.786 35.767v0zM941.829 832.007h-131.747v28.225c0 19.769-15.955 35.767-35.672 35.767v0c-19.716 0-35.672-15.998-35.672-35.767v-28.225h-453.592v28.225c0 19.769-15.955 35.767-35.672 35.767v0c-19.716 0-35.672-15.998-35.672-35.767v-28.225h-131.747c-45.359 0-82.057-36.796-82.057-82.277v-649.071c0-45.481 36.698-82.277 82.057-82.277h859.886c45.359 0 82.057 36.796 82.057 82.277v649.071c-0.114 45.366-36.812 82.277-82.171 82.277v0zM82.057 749.731h131.861v-18.512c0-19.769 15.955-35.767 35.672-35.767v0c19.716 0 35.672 15.998 35.672 35.767v18.512h453.592v-18.512c0-19.769 15.955-35.767 35.672-35.767v0c19.716 0 35.672 15.998 35.672 35.767v18.512h131.861v-112.102h-860v112.102zM941.829 100.66h-859.773v465.777h859.886v-465.777h-0.114z"/>
      <glyph unicode="&#xe924;" glyph-name="chosen"
             d="M378.204 257.451l-139.302 154.711c-13.304 14.775-36.067 15.968-50.842 2.665s-15.968-36.067-2.665-50.842l169.591-188.35c13.304-14.775 36.067-15.968 50.842-2.665 1.63 1.468 3.095 3.050 4.393 4.725 13.068 20.105 6.408 36.056-7.587 52.623l-7.030 7.808c-5.593 5.906-11.847 11.978-18.233 18.42 0.277 0.3 0.554 0.602 0.833 0.905zM0 832.38c0 70.483 57.249 127.62 127.62 127.62h768.76c70.483 0 127.62-57.249 127.62-127.62v-768.76c0-70.483-57.249-127.62-127.62-127.62h-768.76c-70.483 0-127.62 57.249-127.62 127.62v768.76zM378.204 257.451l17.4-19.325c2.49-2.63 4.849-5.226 7.030-7.808l5.858-6.506c11.836-13.145 12.198-32.613 1.728-46.117-0.875-1.346-1.838-2.71-2.893-4.094 32.582 37.459 176.496 197.219 431.743 479.278 0.020 0.022 0.040 0.044 0.060 0.067 13.271 14.739 12.081 37.445-2.658 50.715-14.813 13.338-37.608 12.245-51.077-2.449-199.393-217.535-335.124-365.455-407.193-443.76z"/>
      <glyph unicode="&#xe925;" glyph-name="allchose"
             d="M0 832.38c0 70.483 57.249 127.62 127.62 127.62h768.76c70.483 0 127.62-57.249 127.62-127.62v-768.76c0-70.483-57.249-127.62-127.62-127.62h-768.76c-70.483 0-127.62 57.249-127.62 127.62v768.76zM256 480c-17.673 0-32-14.327-32-32s14.327-32 32-32h512c17.673 0 32 14.327 32 32s-14.327 32-32 32h-512z"/>
      <glyph unicode="&#xe926;" glyph-name="chosenbtm"
             d="M512 960c-282.776 0-512-229.224-512-512s229.224-512 512-512c282.776 0 512 229.224 512 512s-229.224 512-512 512v0zM821.502 583.733l-415.806-404.695c-12.512-12.512-32.832-12.512-45.344 0l-158.855 151.848c-12.512 12.512-12.512 32.832 0 45.344v0c12.512 12.512 32.832 12.512 45.344 0l136.233-129.226 393.084 382.073c12.512 12.512 32.832 12.512 45.344 0v0c12.512-12.512 12.512-32.832 0-45.344v0z"/>
      <glyph unicode="&#xe927;" glyph-name="deleteoption"
             d="M783.531 236.8l-60.373-60.373-211.157 211.243-211.2-211.243-60.373 60.373 211.243 211.2-211.243 211.157 60.373 60.373 211.2-211.2 211.157 211.2 60.373-60.373-211.2-211.157 211.2-211.2zM512 960c-282.795 0-512-229.248-512-512 0-282.795 229.205-512 512-512 282.752 0 512 229.205 512 512 0 282.752-229.248 512-512 512z"/>
      <glyph unicode="&#xe928;" glyph-name="letitgo"
             d="M867.993 562.109l-127.653 127.653c-18.233 18.233-42.545 18.233-54.705 0-18.24-18.24-18.24-42.554 0-54.714l127.651-127.653c6.082-6.080 6.082-12.153 12.162-18.233h-431.59c-24.312 0-36.474-18.24-36.474-36.472 0-18.24 18.234-36.474 36.474-36.474h431.59c-6.080-12.16-12.162-18.233-18.241-18.233l-127.651-127.653c-18.234-18.24-18.234-42.552 0-54.712 6.080-6.080 18.24-12.154 30.392-12.154 12.16 0 18.24 6.075 30.392 12.154l127.653 121.571c60.786 66.866 60.786 164.125 0 224.918zM570.135 15.021h-285.698c-60.785 0-109.411 48.634-109.411 109.418v650.422c0 60.786 48.627 109.418 109.411 109.418h285.698c24.321 0 42.554 18.234 42.554 36.474 0 18.233-18.233 36.465-42.554 36.465h-285.698c-48.625 6.080-97.259-12.153-133.731-48.625-36.474-36.474-54.707-79.026-54.707-133.733v-650.422c0-103.339 85.099-188.437 188.437-188.437h285.698c24.321 0 42.554 18.233 42.554 42.547 0 24.32-24.314 36.472-42.554 36.472z"/>
      <glyph unicode="&#xe929;" glyph-name="operation"
             d="M204.8 448c0-56.554-45.846-102.4-102.4-102.4s-102.4 45.846-102.4 102.4c0 56.554 45.846 102.4 102.4 102.4s102.4-45.846 102.4-102.4zM614.4 448c0-56.554-45.846-102.4-102.4-102.4s-102.4 45.846-102.4 102.4c0 56.554 45.846 102.4 102.4 102.4s102.4-45.846 102.4-102.4zM1024 448c0-56.554-45.846-102.4-102.4-102.4s-102.4 45.846-102.4 102.4c0 56.554 45.846 102.4 102.4 102.4s102.4-45.846 102.4-102.4z"/>
      <glyph unicode="&#xe92a;" glyph-name="wtf"
             d="M512 960c-282.8 0-512-229.2-512-512s229.2-512 512-512c282.8 0 512 229.2 512 512s-229.2 512-512 512zM505.5 147.4c-23.9 0-43.3 19.4-43.3 43.3s19.4 43.3 43.3 43.3c23.9 0 43.3-19.4 43.3-43.3s-19.4-43.3-43.3-43.3zM691.3 569c-2.5-46.3-16.7-82.8-87.7-153.8-36-36-58.7-63-61-86.7-1.8-18.6-17.5-32.5-35.8-32.5-1.2 0-2.4 0.1-3.6 0.2-19.8 1.9-34.2 19.6-32.3 39.4 4.9 49.9 41.5 90.2 81.8 130.5 64.5 64.5 65.6 85 66.7 106.7 1.3 25.3-8 49.8-26.4 69.1-20.9 22-50.5 34.6-81.2 34.6-0.1 0-0.2 0-0.2 0-59.1-0.1-107.3-48.3-107.3-107.5 0-19.9-16.1-36-36-36s-36 16.1-36 36c0 47.9 18.6 92.9 52.4 126.8s78.8 52.6 126.7 52.7c50.5 0.1 99.3-20.7 133.8-57 32.2-33.7 48.5-77.2 46.1-122.5z"/>
      <glyph unicode="&#xe92b;" glyph-name="sorting"
             d="M182.793 579.036l320.734 372.567c13.38 14.397 36.816 14.397 50.196 0l319.15-372.567c19.318-20.872 3.959-53.931-25.098-53.931h-639.963c-28.978 0-44.417 33.059-25.019 53.931zM182.793 316.964l320.734-372.567c13.38-14.397 36.816-14.397 50.196 0l319.15 372.567c19.318 20.872 3.959 53.931-25.098 53.931h-639.963c-28.978 0-44.417-33.059-25.019-53.931z"/>
      <glyph unicode="&#xe92c;" glyph-name="moreandmore"
             d="M465.984 275.747l393.556 437.088c16.126 17.91 43.717 19.356 61.627 3.23s19.356-43.717 3.23-61.627l-424.331-471.268c-9.010-10.007-21.6-14.874-34.081-14.408-12.48-0.466-25.070 4.401-34.081 14.408l-424.331 471.268c-16.126 17.91-14.68 45.501 3.23 61.627s45.501 14.68 61.627-3.23l393.556-437.088z"/>
      <glyph unicode="&#xe92d;" glyph-name="editting"
             d="M911.527 801.896l-72.116 72.121 84.886 84.886c0 0 72.755 1.511 72.755-71.25l-85.526-85.757zM123.958 764.877v-679.073h679.072v460.802l97.011 97.011v-557.813c0-53.577-43.428-97.011-97.011-97.011h-679.072c-53.578 0-97.011 43.434-97.011 97.011v679.073c0 53.582 43.433 97.011 97.011 97.011h557.812l-97.010-97.011h-460.802zM366.484 328.329v72.761l36.38 36.381 72.708-72.713-36.332-36.428h-72.755zM863.086 753.328l-363.296-364.283-72.675 72.675 363.793 363.793 72.179-72.185z"/>
      <glyph unicode="&#xe92e;" glyph-name="searcher"
             d="M1012 6.286l-235.086 234.971c62.971 76 100.8 173.486 100.8 279.886 0 242.4-196.457 438.857-438.857 438.857s-438.857-196.457-438.857-438.857c0-242.4 196.457-438.857 438.857-438.857 106.4 0 203.886 37.829 279.886 100.8l235.086-235.086c8-8 18.514-12 29.143-12s21.029 4 29.143 12c15.886 16.114 15.886 42.171-0.114 58.286zM577.6 192.571c-43.886-18.629-90.514-28-138.743-28s-94.857 9.371-138.743 28c-42.4 17.943-80.571 43.657-113.371 76.457s-58.514 70.971-76.457 113.371c-18.629 43.886-28 90.514-28 138.743s9.371 94.857 28 138.743c17.943 42.4 43.657 80.571 76.457 113.371s70.971 58.514 113.371 76.457c43.886 18.629 90.514 28 138.743 28s94.857-9.371 138.743-28c42.4-17.943 80.571-43.657 113.371-76.457s58.514-70.971 76.457-113.371c18.629-43.886 28-90.514 28-138.743s-9.371-94.857-28-138.743c-17.943-42.4-43.657-80.571-76.457-113.371s-70.857-58.514-113.371-76.457z"/>
      <glyph unicode="&#xe92f;" glyph-name="omg"
             d="M512 960c-282.8 0-512-229.2-512-512s229.2-512 512-512c282.8 0 512 229.2 512 512s-229.2 512-512 512v0zM753 256.7c12.6-12.4 12.8-32.6 0.5-45.3v0c-12.4-12.6-32.6-12.8-45.3-0.5l-196.2 192.3-196.2-192.2c-12.6-12.4-32.9-12.2-45.3 0.5v0c-12.4 12.6-12.2 32.9 0.5 45.3l195.3 191.2-195.3 191.3c-12.6 12.4-12.8 32.6-0.5 45.3v0c12.4 12.6 32.6 12.8 45.3 0.5l196.2-192.3 196.2 192.2c12.6 12.4 32.9 12.2 45.3-0.5v0c12.4-12.6 12.2-32.9-0.5-45.3l-195.3-191.2 195.3-191.3z"/>
      <glyph unicode="&#xe930;" glyph-name="bingo"
             d="M512 960c-282.777 0-512-229.223-512-512s229.223-512 512-512c282.777 0 512 229.223 512 512s-229.223 512-512 512v0zM868.043 616.198l-428.509-378.842c-12.894-11.713-33.832-11.713-46.727 0l-163.709 142.146c-12.894 11.713-12.894 30.737 0 42.45s33.838 11.713 46.732 0l140.393-120.972 405.091 357.664c12.894 11.713 33.834 11.713 46.728 0s12.894-30.733 0-42.446v0z"/>
      <glyph unicode="&#xe931;" glyph-name="close"
             d="M589.98 448.14l356.72 356.44c21.56 21.56 21.56 56.42 0 77.84-21.56 21.56-56.42 21.56-77.84 0l-356.86-356.3-356.86 356.44c-21.56 21.56-56.42 21.56-77.84 0-21.56-21.56-21.56-56.42 0-77.84l356.72-356.44-356.72-356.58c-21.56-21.56-21.56-56.42 0-77.84 10.78-10.78 24.92-16.1 38.92-16.1 14.14 0 28.14 5.32 38.92 16.1l356.86 356.44 356.86-356.58c10.78-10.78 24.78-16.1 38.92-16.1s28.14 5.32 38.92 16.1c21.56 21.56 21.56 56.42 0 77.84l-356.72 356.58z"/>
      <glyph unicode="&#xe932;" glyph-name="photoplus"
             d="M944.615 492.308h-392v382.154c0 24.492-19.815 44.308-44.308 44.308s-44.308-19.815-44.308-44.308v-382.154h-383.385c-24.492 0-44.308-19.815-44.308-44.308s19.815-44.308 44.308-44.308h383.385v-383.385c0-24.492 19.815-44.308 44.308-44.308s44.308 19.815 44.308 44.308v383.385h392c24.492 0 44.308 19.815 44.308 44.308s-19.815 44.308-44.308 44.308z"/>
      <glyph unicode="&#xe933;" glyph-name="moving"
             d="M983.543 730.197h-943.085c-22.346 0-40.457 17.058-40.457 38.098 0 21.047 18.111 38.105 40.457 38.105h943.085c22.346 0 40.457-17.058 40.457-38.105 0-21.040-18.111-38.098-40.457-38.098zM983.543 409.89h-943.085c-22.346 0-40.457 17.058-40.457 38.104 0 21.041 18.111 38.099 40.457 38.099h943.085c22.346 0 40.457-17.058 40.457-38.099 0-21.045-18.111-38.104-40.457-38.104zM983.543 89.6h-943.085c-22.346 0-40.457 17.064-40.457 38.105s18.111 38.105 40.457 38.105h943.085c22.346 0 40.457-17.064 40.457-38.105s-18.111-38.105-40.457-38.105z"/>
      <glyph unicode="&#xe934;" glyph-name="warnning"
             d="M512 960c-282.8 0-512-229.2-512-512s229.2-512 512-512c282.8 0 512 229.2 512 512s-229.2 512-512 512v0zM548.571 813.714c20.229 0 36.571-16.343 36.571-36.571s-16.343-36.571-36.571-36.571c-20.229 0-36.571 16.343-36.571 36.571s16.343 36.571 36.571 36.571v0zM620.718 155.429h-217.436c-20.15 0-36.429 13.93-36.429 31.173s16.279 31.173 36.429 31.173h70.581v314.165h-71.72c-20.15 0-36.429 13.93-36.429 31.173s16.279 31.173 36.429 31.173h108.149c20.15 0 36.429-13.93 36.429-31.173v-345.338h73.997c20.15 0 37.568-13.93 37.568-31.173s-17.418-31.173-37.568-31.173v0z"/>
      <glyph unicode="&#xe935;" glyph-name="nextbtm"
             d="M1021.885 475.079c-13.716 259.224-223.581 469.090-482.806 482.806-294.603 15.642-539.079-219.349-539.079-510.623 0-282.041 229.221-511.261 511.261-511.261 291.274 0 526.265 244.476 510.623 539.079zM511.261-9.258c-259.093 0-468.188 216.532-456.007 478.317 10.899 233.708 200.633 423.442 434.343 434.341 261.783 12.181 478.315-196.914 478.315-456.007-0.125-252.043-204.739-456.651-456.651-456.651zM444.732 473.929c2.434 4.487 5.639 8.844 9.484 12.695l150.892 151.398c10.642 10.774 10.642 28.082 0 38.716-10.767 10.642-28.074 10.642-38.716 0l-151.017-151.53c-43.205-43.462-43.205-113.972 0.125-157.303l150.892-150.892c5.383-5.383 12.307-8.075 19.361-8.075 7.048 0 13.972 2.692 19.355 8.075 10.642 10.642 10.642 28.076 0 38.716l-150.892 151.025c-3.844 3.843-6.923 8.075-9.484 12.564-3.464 8.204-5.196 17.347-5.196 27.43 0.083 9.999 1.815 19.059 5.196 27.18z"/>
      <glyph unicode="&#xe936;" glyph-name="unpublish"
             d="M0 448c0 148.118 119.973 268.19 268.375 268.19h487.25c148.219 0 268.375-120.040 268.375-268.19 0-148.118-119.973-268.19-268.375-268.19h-487.25c-148.219 0-268.375 119.976-268.375 268.19zM268.19 228.571c121.187 0 219.429 98.242 219.429 219.429s-98.242 219.429-219.429 219.429c-121.187 0-219.429-98.242-219.429-219.429s98.242-219.429 219.429-219.429zM724.73 443.016l80.889 80.825c4.889 4.889 4.889 12.794 0 17.651-4.889 4.889-12.794 4.889-17.651 0l-80.921-80.794-80.921 80.825c-4.889 4.889-12.794 4.889-17.651 0-4.889-4.889-4.889-12.794 0-17.651l80.889-80.825-80.889-80.857c-4.889-4.889-4.889-12.794 0-17.651 2.444-2.444 5.651-3.651 8.825-3.651 3.206 0 6.381 1.206 8.825 3.651l80.921 80.825 80.921-80.857c2.444-2.444 5.619-3.651 8.825-3.651s6.381 1.206 8.825 3.651c4.889 4.889 4.889 12.794 0 17.651l-80.889 80.857z"/>
      <glyph unicode="&#xe937;" glyph-name="publish"
             d="M275.351 386.538l-45.097 50.085c-4.223 4.691-11.45 5.069-16.14 0.846s-5.069-11.45-0.846-16.14l53.838-59.794c4.223-4.691 11.45-5.069 16.14-0.846 1 0.901 1.804 1.938 2.41 3.058-0.139-0.128-0.274-0.252-0.407-0.372 4.652 10.482-1.094 12.961-10.155 22.881 0.083 0.092 0.169 0.186 0.256 0.282zM0 448c0 148.118 119.973 268.19 268.375 268.19h487.25c148.219 0 268.375-120.040 268.375-268.19 0-148.118-119.973-268.19-268.375-268.19h-487.25c-148.219 0-268.375 119.976-268.375 268.19zM755.81 228.571c121.187 0 219.429 98.242 219.429 219.429s-98.242 219.429-219.429 219.429c-121.187 0-219.429-98.242-219.429-219.429s98.242-219.429 219.429-219.429zM275.351 386.538l8.741-9.708c3.323-3.69 3.797-8.95 1.564-13.082 13.682 12.598 58.764 62.327 135.244 149.187 4.186 4.754 3.766 11.991-0.941 16.229-4.694 4.227-11.924 3.858-16.163-0.825-74.801-82.622-117.616-129.888-128.445-141.8z"/>
      <glyph unicode="&#xe938;"
             d="M847.955 678.29v-594.544c0-16.385 11.311-89.75-15.838-89.75h-604.39c-12.198 0-37.78-4.745-39.377 13.020-0.938 10.418 0 21.359 0 31.802v639.463c0 34.285-53.161 34.285-53.161 0v-594.54c0-46.672-10.596-103.214 32.781-133.881 15.579-11.007 37.175-9.029 55.361-9.029h551.721c49.881 0 126.064-6.84 126.064 66.236v671.214c0 34.29-53.161 34.29-53.161 0.009z"/>
      <glyph unicode="&#xe939;"
             d="M491.565 535.623v-375.168c0-34.276 53.181-34.276 53.181 0v375.168c0 34.286-53.181 34.286-53.181 0zM308.295 535.623v-375.168c0-34.276 53.161-34.276 53.161 0v375.168c0 34.286-53.161 34.286-53.161 0zM672.366 535.623v-375.168c0-34.276 53.161-34.276 53.161 0v375.168c0 34.286-53.161 34.286-53.161 0zM25.407 746.341h973.189c33.87 0 33.87 53.161 0 53.161h-973.189c-33.878 0-33.878-53.161 0-53.161z"/>
      <glyph unicode="&#xe93a;"
             d="M322.216 791.361v83.371c0 19.073 1.050 32.107 22.515 32.107h346.839c21.465 0 22.515-13.034 22.515-32.107v-83.371c0-34.281 53.161-34.281 53.161 0 0 56.831 19.218 168.639-67.762 168.639h-362.667c-86.98 0-67.762-111.808-67.762-168.639 0-34.281 53.161-34.281 53.161 0z"/>
      <glyph unicode="&#xe93b;" glyph-name="screening"
             d="M969.796 897.223c-15.531 38.158-51.933 62.777-92.703 62.777h-730.097c-40.649 0-77.050-24.618-92.703-62.777s-7.159-81.61 21.598-110.906l331.256-324.1v-322.5c0-11.448 4.368-22.526 12.255-30.773l151.917-159.404c8.372-8.863 19.778-13.54 31.427-13.54 5.46 0 11.042 1.108 16.381 3.2 16.502 6.77 27.301 23.018 27.301 41.113v483.997l301.528 321.885c28.879 29.296 37.372 72.747 21.841 111.029zM886.194 848.971l-314.268-334.933c-8.251-8.37-12.741-19.572-12.741-31.388v-396.355l-64.552 71.393v322.993c0 11.694-4.611 23.018-12.741 31.265l-344.118 337.025c-5.096 5.17-4.247 10.586-2.791 14.279s4.854 8.124 12.013 8.124h730.097c7.159 0 10.435-4.431 12.013-8.124 1.456-3.693 2.184-9.232-2.912-14.279z"/>
      <glyph unicode="&#xe93c;" glyph-name="order"
             d="M422.1 958.763h-53.884v-896.416c-51.52 80.069-119.458 143.277-197.55 181.811v-71.739c84.317-47.928 153.76-128.891 197.55-229.468v-0.243h53.884v15.105c0.005 0.006 0.010 0.006 0.015 0.012-0.005 0.010-0.010 0.022-0.015 0.033v1000.904zM655.587 958.3v0.463h-53.884v-1016.054h53.884v896.19c51.525-80.081 119.473-143.305 197.578-181.839v71.726c-84.33 47.934-153.784 128.914-197.578 229.514z"/>
      <glyph unicode="&#xe93d;" glyph-name="passwordwarning"
             d="M512-64c-282.77 0-512 229.23-512 512s229.23 512 512 512c282.77 0 512-229.23 512-512s-229.23-512-512-512zM448 448.026h128v256h-128v-256zM448 192.026h128v128h-128v-128z"/>
      <glyph unicode="&#xe93e;"
             d="M512-32c265.097 0 480 214.903 480 480s-214.903 480-480 480c-265.097 0-480-214.903-480-480s214.903-480 480-480zM512-64c-282.77 0-512 229.23-512 512s229.23 512 512 512c282.77 0 512-229.23 512-512s-229.23-512-512-512z"/>
      <glyph unicode="&#xe93f;"
             d="M567.936 256h-43.52v260.096h-94.208v34.816c12.288 0 24.235 0.939 35.84 2.816s22.101 5.376 31.488 10.496c9.387 5.12 17.323 12.117 23.808 20.992s10.923 20.139 13.312 33.792h33.28v-363.008z"/>
      <glyph unicode="&#xe940;"
             d="M512-32c265.097 0 480 214.903 480 480s-214.903 480-480 480c-265.097 0-480-214.903-480-480s214.903-480 480-480zM512-64c-282.77 0-512 229.23-512 512s229.23 512 512 512c282.77 0 512-229.23 512-512s-229.23-512-512-512z"/>
      <glyph unicode="&#xe941;"
             d="M408.192 490.496c-1.024 18.432 0.853 35.499 5.632 51.2s12.203 29.269 22.272 40.704c10.069 11.435 22.613 20.395 37.632 26.88s32.085 9.728 51.2 9.728c15.701 0 30.464-2.304 44.288-6.912s25.856-11.264 36.096-19.968c10.24-8.704 18.347-19.541 24.32-32.512s8.96-27.989 8.96-45.056c0-16.043-2.475-30.208-7.424-42.496s-11.52-23.296-19.712-33.024c-8.192-9.728-17.579-18.517-28.16-26.368s-21.504-15.36-32.768-22.528c-11.264-6.827-22.528-13.568-33.792-20.224s-21.589-13.739-30.976-21.248c-9.387-7.509-17.408-15.616-24.064-24.32s-11.008-18.688-13.056-29.952h186.368v-38.4h-237.056c1.707 21.504 5.547 39.851 11.52 55.040s13.568 28.416 22.784 39.68c9.216 11.264 19.627 21.163 31.232 29.696s23.723 16.555 36.352 24.064c15.36 9.557 28.843 18.347 40.448 26.368s21.248 16.128 28.928 24.32c7.68 8.192 13.483 17.067 17.408 26.624s5.888 20.651 5.888 33.28c0 9.899-1.877 18.859-5.632 26.88s-8.789 14.933-15.104 20.736c-6.315 5.803-13.739 10.24-22.272 13.312s-17.579 4.608-27.136 4.608c-12.629 0-23.467-2.645-32.512-7.936s-16.469-12.203-22.272-20.736c-5.803-8.533-9.984-18.176-12.544-28.928s-3.669-21.589-3.328-32.512h-43.52z"/>
      <glyph unicode="&#xe942;"
             d="M512-32c265.097 0 480 214.903 480 480s-214.903 480-480 480c-265.097 0-480-214.903-480-480s214.903-480 480-480zM512-64c-282.77 0-512 229.23-512 512s229.23 512 512 512c282.77 0 512-229.23 512-512s-229.23-512-512-512z"/>
      <glyph unicode="&#xe943;"
             d="M497.28 463.36c1.707-0.341 3.243-0.512 4.608-0.512 1.707 0 3.413 0 5.12 0h9.216c9.216 0 18.005 1.28 26.368 3.84s15.701 6.315 22.016 11.264c6.315 4.949 11.349 11.179 15.104 18.688s5.632 16.043 5.632 25.6c0 19.456-6.144 34.048-18.432 43.776s-27.648 14.592-46.080 14.592c-11.605 0-21.76-2.133-30.464-6.4s-15.872-9.984-21.504-17.152c-5.632-7.168-9.813-15.531-12.544-25.088s-4.096-19.627-4.096-30.208h-43.52c0.683 17.408 3.499 33.28 8.448 47.616s12.032 26.624 21.248 36.864c9.216 10.24 20.736 18.261 34.56 24.064s29.781 8.704 47.872 8.704c15.701 0 30.293-1.963 43.776-5.888s25.173-9.813 35.072-17.664c9.899-7.851 17.664-17.92 23.296-30.208s8.448-26.795 8.448-43.52c0-16.384-4.779-30.891-14.336-43.52s-21.504-22.187-35.84-28.672v-1.024c22.187-4.779 38.656-15.189 49.408-31.232s16.128-34.987 16.128-56.832c0-18.091-3.328-34.048-9.984-47.872s-15.616-25.344-26.88-34.56c-11.264-9.216-24.491-16.128-39.68-20.736s-31.317-6.912-48.384-6.912c-18.432 0-35.157 2.56-50.176 7.68s-27.819 12.715-38.4 22.784c-10.581 10.069-18.688 22.443-24.32 37.12s-8.277 31.403-7.936 50.176h43.52c0.683-23.552 7.509-42.752 20.48-57.6s31.915-22.272 56.832-22.272c10.581 0 20.651 1.621 30.208 4.864s17.92 7.851 25.088 13.824c7.168 5.973 12.885 13.312 17.152 22.016s6.4 18.517 6.4 29.44c0 11.264-2.048 21.248-6.144 29.952s-9.557 16.043-16.384 22.016c-6.827 5.973-14.933 10.411-24.32 13.312s-19.541 4.352-30.464 4.352c-9.216 0-17.92-0.512-26.112-1.536v36.864z"/>
      <glyph unicode="&#xe944;"
             d="M512-32c265.097 0 480 214.903 480 480s-214.903 480-480 480c-265.097 0-480-214.903-480-480s214.903-480 480-480zM512-64c-282.77 0-512 229.23-512 512s229.23 512 512 512c282.77 0 512-229.23 512-512s-229.23-512-512-512z"/>
      <glyph unicode="&#xe945;"
             d="M559.232 379.392v177.664h-1.024l-120.832-177.664h121.856zM600.192 379.392h49.152v-38.4h-49.152v-84.992h-40.96v84.992h-159.232v41.984l165.376 236.032h34.816v-239.616z"/>
      <glyph unicode="&#xe946;" glyph-name="tobeno3"
             d="M512-64c-282.77 0-512 229.23-512 512s229.23 512 512 512c282.77 0 512-229.23 512-512s-229.23-512-512-512zM497.28 463.36v-36.864c8.192 1.024 16.896 1.536 26.112 1.536 10.923 0 21.077-1.451 30.464-4.352s17.493-7.339 24.32-13.312c6.827-5.973 12.288-13.312 16.384-22.016s6.144-18.688 6.144-29.952c0-10.923-2.133-20.736-6.4-29.44s-9.984-16.043-17.152-22.016c-7.168-5.973-15.531-10.581-25.088-13.824s-19.627-4.864-30.208-4.864c-24.917 0-43.861 7.424-56.832 22.272s-19.797 34.048-20.48 57.6h-43.52c-0.341-18.773 2.304-35.499 7.936-50.176s13.739-27.051 24.32-37.12c10.581-10.069 23.381-17.664 38.4-22.784s31.744-7.68 50.176-7.68c17.067 0 33.195 2.304 48.384 6.912s28.416 11.52 39.68 20.736c11.264 9.216 20.224 20.736 26.88 34.56s9.984 29.781 9.984 47.872c0 21.845-5.376 40.789-16.128 56.832s-27.221 26.453-49.408 31.232v1.024c14.336 6.485 26.283 16.043 35.84 28.672s14.336 27.136 14.336 43.52c0 16.725-2.816 31.232-8.448 43.52s-13.397 22.357-23.296 30.208c-9.899 7.851-21.589 13.739-35.072 17.664s-28.075 5.888-43.776 5.888c-18.091 0-34.048-2.901-47.872-8.704s-25.344-13.824-34.56-24.064c-9.216-10.24-16.299-22.528-21.248-36.864s-7.765-30.208-8.448-47.616h43.52c0 10.581 1.365 20.651 4.096 30.208s6.912 17.92 12.544 25.088c5.632 7.168 12.8 12.885 21.504 17.152s18.859 6.4 30.464 6.4c18.432 0 33.792-4.864 46.080-14.592s18.432-24.32 18.432-43.776c0-9.557-1.877-18.091-5.632-25.6s-8.789-13.739-15.104-18.688c-6.315-4.949-13.653-8.704-22.016-11.264s-17.152-3.84-26.368-3.84h-9.216c-1.707 0-3.413 0-5.12 0-1.365 0-2.901 0.171-4.608 0.512z"/>
      <glyph unicode="&#xe947;" glyph-name="tobeno4"
             d="M512-64c-282.77 0-512 229.23-512 512s229.23 512 512 512c282.77 0 512-229.23 512-512s-229.23-512-512-512zM559.232 379.392h-121.856l120.832 177.664h1.024v-177.664zM600.192 379.392v239.616h-34.816l-165.376-236.032v-41.984h159.232v-84.992h40.96v84.992h49.152v38.4h-49.152z"/>
      <glyph unicode="&#xe948;" glyph-name="tobeno2"
             d="M512-64c-282.77 0-512 229.23-512 512s229.23 512 512 512c282.77 0 512-229.23 512-512s-229.23-512-512-512zM408.192 490.496h43.52c-0.341 10.923 0.768 21.76 3.328 32.512s6.741 20.395 12.544 28.928c5.803 8.533 13.227 15.445 22.272 20.736s19.883 7.936 32.512 7.936c9.557 0 18.603-1.536 27.136-4.608s15.957-7.509 22.272-13.312c6.315-5.803 11.349-12.715 15.104-20.736s5.632-16.981 5.632-26.88c0-12.629-1.963-23.723-5.888-33.28s-9.728-18.432-17.408-26.624c-7.68-8.192-17.323-16.299-28.928-24.32s-25.088-16.811-40.448-26.368c-12.629-7.509-24.747-15.531-36.352-24.064s-22.016-18.432-31.232-29.696c-9.216-11.264-16.811-24.491-22.784-39.68s-9.813-33.536-11.52-55.040h237.056v38.4h-186.368c2.048 11.264 6.4 21.248 13.056 29.952s14.677 16.811 24.064 24.32c9.387 7.509 19.712 14.592 30.976 21.248s22.528 13.397 33.792 20.224c11.264 7.168 22.187 14.677 32.768 22.528s19.968 16.64 28.16 26.368c8.192 9.728 14.763 20.736 19.712 33.024s7.424 26.453 7.424 42.496c0 17.067-2.987 32.085-8.96 45.056s-14.080 23.808-24.32 32.512c-10.24 8.704-22.272 15.36-36.096 19.968s-28.587 6.912-44.288 6.912c-19.115 0-36.181-3.243-51.2-9.728s-27.563-15.445-37.632-26.88c-10.069-11.435-17.493-25.003-22.272-40.704s-6.656-32.768-5.632-51.2z"/>
      <glyph unicode="&#xe949;" glyph-name="tobeno1"
             d="M512-64c-282.77 0-512 229.23-512 512s229.23 512 512 512c282.77 0 512-229.23 512-512s-229.23-512-512-512zM567.936 256v363.008h-33.28c-2.389-13.653-6.827-24.917-13.312-33.792s-14.421-15.872-23.808-20.992c-9.387-5.12-19.883-8.619-31.488-10.496s-23.552-2.816-35.84-2.816v-34.816h94.208v-260.096h43.52z"/>
      <glyph unicode="&#xe94a;" glyph-name="rightdone"
             d="M512-48.941c-274.453 0-496.941 222.488-496.941 496.941s222.488 496.941 496.941 496.941c274.453 0 496.941-222.488 496.941-496.941s-222.488-496.941-496.941-496.941zM512-18.824c257.82 0 466.824 209.004 466.824 466.824s-209.004 466.824-466.824 466.824c-257.82 0-466.824-209.004-466.824-466.824s209.004-466.824 466.824-466.824zM432 348.538l245.737 272.918c8.345 9.268 22.622 10.016 31.89 1.671s10.016-22.622 1.671-31.89l-257.845-286.366c-5.439-6.040-13.397-8.461-20.846-7.105-7.735-1.781-16.18 0.578-21.868 6.895l-101.15 112.338c-8.345 9.268-7.596 23.545 1.671 31.89s23.545 7.596 31.89-1.671l88.851-98.679z"/>
      <glyph unicode="&#xe94b;" horiz-adv-x="1603"
             d="M299.992 957.506c-46.327-5.835-92.661-44.182-107.833-88.364-10.106-27.51-191.238-807.782-192.072-821.963-1.694-40.839 21.901-70.858 60.646-78.361 14.329-3.335 474.308-3.335 489.478 0 43.8 8.345 85.081 42.515 100.251 84.196 5.898 15.839 192.916 811.117 192.916 824.464 2.534 37.513-20.225 68.357-56.435 79.194-8.432 1.658-467.568 3.334-486.95 0.834z"/>
      <glyph unicode="&#xe94c;" horiz-adv-x="1603"
             d="M728.806 957.506c-46.336-5.835-92.672-44.182-107.833-88.364-9.274-27.51-191.24-807.782-191.24-821.963-1.683-40.839 21.901-70.858 60.666-78.361 14.309-3.335 474.288-3.335 489.458 0 43.809 8.345 85.092 42.515 100.253 84.196 5.895 15.839 192.923 811.117 192.923 824.464 2.528 37.513-20.216 68.357-56.444 79.194-9.272 1.658-468.41 3.334-487.782 0.834z"/>
      <glyph unicode="&#xe94d;" horiz-adv-x="1603"
             d="M1176.149 957.506c-46.336-5.835-92.67-44.182-107.833-88.364-9.265-27.51-191.238-807.782-191.238-821.963-1.685-40.839 21.908-70.858 60.655-78.361 14.327-3.335 356.367-3.335 371.528 0 43.809 8.345 85.090 42.515 100.244 84.196 5.904 15.839 192.932 811.117 192.932 824.464 2.519 37.513-20.225 68.357-56.453 79.194-8.414 2.492-392.575 4.168-411.957 1.658h42.124v-0.825z"/>
      <glyph unicode="&#xe94e;" horiz-adv-x="1603"
             d="M285.673 704.084c0-0.834-0.843-5.835-2.528-10.837-19.373-65.023-38.754-152.553-36.228-163.39 6.747-32.511 54.768-30.010 71.614 4.168 5.053 9.161 41.281 161.714 41.281 172.551 0 0.834 57.287 0 57.287-0.825 0 0 0-2.501-0.851-5.011-0.843-2.492-10.099-37.504-20.207-79.185-22.759-88.364-25.278-97.534-37.071-115.040-38.762-56.695-168.494-55.028-178.602 2.492-2.528 12.513 25.278 156.721 37.911 195.911 0 2.492 67.395 0.834 67.395-0.834zM1146.668 704.084c38.747-8.345 50.54-39.18 32.851-85.039-17.688-45.84-55.602-65.847-122.154-65.847-20.223 0-18.538 3.334-31.173-59.187-2.528-11.671-5.053-22.508-5.053-24.175-0.843-4.168-60.666-4.168-59.814 0 50.549 214.242 54.759 232.572 54.759 234.249l0.843 2.492h60.655c48.021-0.825 61.497-0.825 69.086-2.492zM626.868 621.555c8.423-1.667 14.321-8.345 14.321-14.181 0-20.832-42.968-35.012-58.972-19.164-15.161 15.839 16.846 40.014 44.651 33.345zM477.754 605.716c0-1.667-0.843-5.011-0.843-7.503l-0.843-3.343 10.108 5.011c26.963 13.329 53.074 10.837 61.497-5.835 5.055-10.012 4.213-15.848-9.265-77.527-2.528-10.837-5.895-25.851-6.738-33.345-3.37-16.681-0.843-15.848-31.173-15.848-26.114 0-26.114 0-25.271 2.51 0 1.667 3.37 14.996 6.74 30.844 13.476 59.178 14.327 67.524 2.525 67.524-6.738 0-16.012-4.168-16.846-6.669-1.685-5.844-16.855-78.361-17.697-85.030l-1.685-7.512-26.111-1.667c-32.007-0.834-29.488-3.326-22.75 25.018 9.265 36.679 14.327 62.513 17.697 85.854 4.204 25.018 1.685 22.508 25.269 25.851 10.95 1.667 21.901 3.326 25.278 4.159 8.423 2.51 10.108 1.676 10.108-2.492zM877.92 606.541c0-1.658-0.843-5.002-0.843-7.494l-0.851-4.177 10.117 5.011c52.232 26.676 72.448 5.002 57.284-63.364-3.359-14.996-7.58-36.671-10.106-46.683-1.685-10.837-4.213-19.998-5.055-20.832-3.37-3.335-53.074-2.51-52.24 0 0 1.667 3.379 14.996 6.747 30.010 14.329 60.846 14.329 68.348 1.685 68.348-10.108 0-15.161-3.326-16.846-10.828-2.536-9.17-15.17-69.191-16.846-80.028l-1.694-9.179-26.12-0.834c-32.007-0.825-29.481-4.168-21.899 26.685 8.43 33.345 14.327 64.189 18.538 86.697 3.361 21.665 0.843 19.173 21.901 22.499 9.274 1.676 21.065 3.343 25.278 4.168 8.423 4.177 10.95 3.343 10.95 0zM1389.297 607.374c3.361-50.842 4.201-65.847 4.201-66.681s7.592 12.504 16.006 29.177c16.855 33.345 13.485 30.010 32.016 32.502 5.053 0.843 15.161 2.51 22.75 4.168 18.531 3.343 18.531 5.011-2.534-31.669-28.639-49.193-68.237-118.384-82.556-143.392-42.966-77.518-42.966-77.518-79.185-78.352l-21.908-0.843 1.683 5.844c0.843 3.326 3.37 9.995 4.213 14.996l2.528 9.179h6.738c7.589 0 9.265 1.667 16.012 13.338 2.528 4.168 6.738 10.837 8.423 15.005 2.528 4.159 10.95 17.506 17.688 30.844l13.485 23.341-3.377 30.835c-4.204 35.846-9.265 78.37-11.793 90.874-1.685 11.671-1.685 11.671 13.487 13.338 6.738 0.825 17.688 3.334 23.584 4.168 16.003 4.993 17.688 4.993 18.54 3.326zM754.075 606.541c64.874-11.671 42.124-123.368-28.639-139.215-48.021-10.837-80.87 7.512-80.87 44.191 0.834 64.189 48.855 105.87 109.509 95.024zM1239.331 603.215c3.37-1.676 8.432-5.002 10.95-7.512 4.21-4.159 4.21-4.159 4.21-1.658 0.843 3.334 0 3.334 33.701 8.327 26.963 4.168 26.12 4.168 24.437-3.326-10.95-46.683-20.225-87.531-24.437-107.546-5.895-30.010-1.683-26.667-34.534-25.833h-27.805v3.335c0 3.326-1.683 5.002-3.368 2.501-9.274-15.014-54.759-9.179-67.404 9.17-31.164 46.683 35.386 145.042 84.249 122.543zM634.448 579.031c0 0 0-4.159-0.843-7.503-6.738-26.676-18.529-80.862-21.065-90.856l-2.528-12.513-27.796-0.834c-32.849-0.834-31.173-2.492-24.435 17.506 5.895 19.182 11.802 42.524 15.17 67.533 3.37 21.674 0 18.34 24.435 21.674 10.95 1.667 22.744 3.326 25.271 4.159 6.738 1.676 10.948 1.676 11.791 0.834zM781.88 406.48c0-0.834-1.685-4.177-4.213-8.345-1.694-4.159-4.21-7.503-4.21-7.503 49.695-0.825 51.389-0.825 50.547-3.326l-9.265-30.019h-72.456l-4.21-3.326c-9.265-8.345-58.129-19.173-58.129-12.504l9.265 30.010h6.738c11.802 0 14.321 2.492 24.437 19.998l8.423 15.848c43.809 0.825 53.065 0 53.065-0.834h0.009zM892.248 406.48c0-0.834-0.851-5.002-2.536-10.012-1.683-4.168-2.516-8.327-2.516-9.161 0 0 4.201 1.667 9.257 5.826 18.54 12.513 34.543 15.005 81.72 15.005 18.531 0 34.537 0 35.379-0.825 0.849-1.667-26.956-91.708-31.166-100.035-5.895-10.846-11.802-16.681-21.058-20.841l-8.432-3.335-96.031-1.667-8.432-28.343c-16.846-54.195-16.846-50.026 7.589-47.526 19.373 1.676 18.531 3.335 12.636-16.664l-5.055-16.672h-24.426c-53.083-0.843-59.821 2.492-54.768 24.175 2.536 10.837 63.182 209.24 64.025 210.907 0.843 0.825 43.818 0.825 43.818-0.834zM1113.801 406.48c0-0.834-0.843-3.335-1.676-6.669-2.525-8.345-2.525-8.345 8.423-2.51 14.321 7.512 48.021 10.012 117.099 10.012h21.91v-10.012c0-11.671 0.84-12.504 10.948-14.163l7.583-0.834-8.425-30.010h-15.17c-38.745-0.843-44.642 3.326-45.494 25.833v10.846l-2.516-7.503-2.536-8.345h-8.423c-4.213 0-8.423 0-8.423-0.834 0 0-41.274-135.872-47.179-155.045-0.843-1.676 0-2.51 5.062-2.51 7.583 0 7.583 0 5.046-6.66-2.519-7.503-2.519-7.503 5.895-7.503 5.907 0 9.274 0.834 13.487 3.326 5.895 3.343 5.895 2.51 32.849 40.014l10.95 15.848h-22.744c-27.794 0-25.269-1.676-20.214 14.996l4.21 13.347h55.611c5.044 17.506 6.729 22.508 6.729 23.341s-11.793 0.834-26.954 0.834h-26.963l8.423 30.010h75.818c41.281 0 75.833 0 75.833-0.834s-1.685-7.512-4.219-15.014l-4.213-14.163-50.547-1.667c-4.213-12.513-5.895-18.349-6.738-20.016l-0.843-3.326h24.435c28.639 0 26.954 1.667 21.058-15.005l-4.213-13.338h-55.602l-8.423-10.004h21.901l3.368-20.016c3.37-22.499 3.37-22.499 14.321-22.499 8.432 0 8.432 1.667 2.534-18.34l-5.062-16.672h-16.003c-27.796 0-32.849 4.159-37.913 32.502l-2.528 18.34-10.106-13.338c-27.805-37.504-29.481-38.338-64.867-38.338-22.75 0-22.75 0-19.382 6.669 0.851 3.326 0.851 3.326-5.895 3.326-6.738 0-6.738 0-8.423-5.002l-0.843-4.993h-47.179l0.843 2.501c2.528 8.327 6.738 7.494-44.651 7.494-44.651 0-47.179 0-46.327 2.51l4.204 14.996c5.053 15.014 4.21 15.014 9.265 15.014 4.219 0 4.219 0 5.895 5.835 39.607 130.87 52.24 172.551 53.926 178.387l3.37 10.837h23.584c15.161 0 26.111-0.825 26.111-1.658zM814.738 334.788l-9.274-29.177h-50.538c-5.055-16.672-6.74-21.674-7.589-23.341-0.843-2.51 0.84-2.51 25.278-2.51 14.327 0 26.12-0.834 26.12-0.834 0-0.825-0.843-2.492-1.694-5.002-0.843-1.658-2.528-8.327-4.204-14.996l-3.377-10.837h-52.232l-5.898-20.016c-8.423-28.334-7.58-29.177 24.429-25.009 13.485 1.667 12.642 3.343 6.747-16.672l-5.055-16.672h-35.395c-55.591 0-56.442 1.676-41.281 49.193 4.221 14.996 8.432 27.51 8.432 27.51s-5.895 0.834-14.327 0.834c-7.572 0-14.312 0-14.312 0.834 5.898 20.832 8.416 27.51 8.416 29.177 0.84 1.658 2.534 2.492 15.17 2.492h14.318l6.738 25.851h-13.476c-10.117 0-13.478 0-13.478 1.667 0 1.658 7.583 25.833 8.416 28.343 1.692 1.658 128.907 0.834 128.065-0.834zM978.171 274.758c0-1.667-1.683-6.669-2.525-10.837-5.064-23.341-11.793-28.343-38.756-30.010-9.265-0.834-17.688-1.667-17.688-1.667-1.694-2.492-1.694-22.508 0-25.833l2.528-3.343 16.846 0.834c9.265 0.834 16.846 0.834 16.846 0.834 0-1.667-9.265-30.844-10.108-31.669-1.685-1.676-53.065-0.834-59.812 1.658-10.108 3.343-10.108 2.51-9.274 55.028l0.851 45.84h42.966v-17.506h8.432c9.257 0 10.099 0.843 14.309 12.513l2.528 6.669h16.855c15.163-0.834 16.846-0.834 16.003-2.51zM1057.365 631.55l-9.272-40.014h12.642c64.867-1.667 91.83 72.534 28.639 77.536-10.108 0.834-19.373 1.667-20.216 1.667-2.528 0-2.528-2.51-11.793-39.189zM722.057 574.872c-16.003-6.669-31.164-66.699-18.522-75.86 9.259-7.512 22.744 5.002 29.481 25.833 10.959 38.356 7.58 56.695-10.959 50.026zM1224.17 570.704c-16.855-8.345-29.481-67.524-16.855-74.193 16.855-9.17 38.762 22.499 38.762 56.686 0 15.839-9.274 23.341-21.908 17.506zM883.816 372.292l-4.21-15.005c-2.528-7.503-4.213-14.172-5.055-14.996 0-0.834 4.213 0.825 10.108 4.168 16.846 8.327 21.901 9.995 46.336 10.828l21.065 0.843c3.361 9.995 4.213 14.163 4.213 14.996 0.843 0.834-71.614 0.834-72.456-0.834zM869.497 323.951l-3.379-13.338 72.456 0.834 4.21 13.338c-57.284 0-73.288 0-73.288-0.834zM1098.64 353.961c-3.37-10.846-5.889-19.173-5.046-19.173l10.099 3.326c5.064 1.676 14.329 4.177 19.382 5.002 5.053 0.834 9.265 1.676 10.108 1.676 0 0 8.432 25.842 8.432 26.676 0 0-8.432 0.825-18.54 0.825h-18.54l-5.895-18.331zM1085.162 311.447c0-0.834-3.368-9.179-5.895-19.182-3.37-9.995-5.895-19.173-5.895-19.173 0-0.825 4.21 0.834 10.108 3.343 5.895 2.492 14.318 5.002 19.371 5.826 10.95 1.676 11.793 2.501 12.644 6.678 0.843 1.658 2.528 8.327 4.204 13.329l3.377 10.012h-18.54c-10.108 0-19.373 0-19.373-0.834zM1055.674 215.571l37.077-0.834c7.583 25.009 10.099 33.354 10.099 34.188l-37.060 1.658-10.117-35.012z"/>
      <glyph unicode="&#xe94f;" glyph-name="gogowrong" horiz-adv-x="1138"
             d="M651.407 481.63l377.481 377.185c22.815 22.815 22.815 59.704 0 82.37-22.815 22.815-59.704 22.815-82.37 0l-377.63-377.037-377.63 377.185c-22.815 22.815-59.704 22.815-82.37 0-22.815-22.815-22.815-59.704 0-82.37l377.481-377.185-377.481-377.333c-22.815-22.815-22.815-59.704 0-82.37 11.407-11.407 26.37-17.037 41.185-17.037 14.963 0 29.778 5.63 41.185 17.037l377.63 377.185 377.63-377.333c11.407-11.407 26.222-17.037 41.185-17.037s29.778 5.63 41.185 17.037c22.815 22.815 22.815 59.704 0 82.37l-377.481 377.333z"/>
      <glyph unicode="&#xe950;" glyph-name="gogoright" horiz-adv-x="1280"
             d="M423.721 122.961l672.332 746.7c22.173 24.626 60.111 26.614 84.737 4.441s26.614-60.111 4.441-84.737l-715.574-794.726c-8.284-9.2-18.769-15.241-29.937-18.042-21.419-6.237-45.481-0.229-61.409 17.461l-282.651 313.916c-22.173 24.626-20.185 62.563 4.441 84.737s62.563 20.185 84.737-4.441l238.885-265.309z"/>
      <glyph unicode="&#xe951;"
             d="M781.665 53.181c-76.071-52.108-170.158-82.171-270.252-82.171-266.248 0-482.449 216.449-482.449 483.002 0 116.241 42.039 222.462 110.102 306.636z"/>
      <glyph unicode="&#xe952;"
             d="M511.414-63.061c-282.263 0-510.475 228.474-510.475 511.061s228.212 511.061 510.475 511.061c68.063 0 132.123-12.025 194.181-38.079 14.013-6.012 22.020-22.046 16.015-36.075-6.006-16.033-24.022-22.046-38.035-16.033-54.050 22.046-112.104 34.071-172.16 34.071-250.233 0-454.423-204.424-454.423-454.944s204.19-454.944 454.423-454.944c250.233 0 454.423 204.424 454.423 454.944 0 122.254-48.045 236.491-132.123 320.665-10.009 10.021-10.009 28.058 0 40.083 10.009 10.021 28.026 10.021 40.037 0 96.089-96.2 150.14-224.466 150.14-360.749-2.002-282.586-230.214-511.061-512.477-511.061z"/>
      <glyph unicode="&#xe953;"
             d="M654.223 463.094c-69.647 0-126.58 56.932-126.58 126.58 0 69.645 56.932 126.577 126.58 126.577s126.577-56.931 126.577-126.577c0-69.648-56.93-126.58-126.577-126.58zM654.223 514.294c41.436 0 75.377 33.942 75.377 75.379 0 41.435-33.942 75.377-75.377 75.377s-75.379-33.943-75.379-75.377c0-41.436 33.943-75.379 75.379-75.379zM455.111 431.807c23.392 0 41.245-19.129 41.245-41.245v-170.666c0-23.394-19.128-41.245-41.245-41.245h-170.666c-23.394 0-41.245 19.126-41.245 41.245v170.666c0 23.392 19.127 41.245 41.245 41.245h170.666zM442.311 232.696v145.066h-145.066v-145.066h145.066zM749.511 431.807c23.392 0 41.245-19.129 41.245-41.245v-170.666c0-23.394-19.128-41.245-41.245-41.245h-170.666c-23.394 0-41.245 19.126-41.245 41.245v170.666c0 23.392 19.127 41.245 41.245 41.245h170.666zM736.711 232.696v145.066h-145.066v-145.066h145.066zM455.111 716.251c23.392 0 41.245-19.127 41.245-41.245v-170.666c0-23.392-19.129-41.245-41.245-41.245h-170.666c-23.394 0-41.245 19.128-41.245 41.245v170.666c0 23.394 19.126 41.245 41.245 41.245h170.666zM436.101 667.894h-129.802c-6.358 0-11.899-5.171-11.899-11.899v-129.802c0-6.357 5.172-11.899 11.899-11.899h129.802c6.356 0 11.899 5.173 11.899 11.899v129.802c0 6.358-5.172 11.899-11.899 11.899z"/>
      <glyph unicode="&#xe954;"
             d="M781.665 53.181c-76.071-52.108-170.158-82.171-270.252-82.171-266.248 0-482.449 216.449-482.449 483.002 0 116.241 42.039 222.462 110.102 306.636z"/>
      <glyph unicode="&#xe955;"
             d="M511.414-63.061c-282.263 0-510.475 228.474-510.475 511.061s228.212 511.061 510.475 511.061c68.063 0 132.123-12.025 194.181-38.079 14.013-6.012 22.020-22.046 16.015-36.075-6.006-16.033-24.022-22.046-38.035-16.033-54.050 22.046-112.104 34.071-172.16 34.071-250.233 0-454.423-204.424-454.423-454.944s204.19-454.944 454.423-454.944c250.233 0 454.423 204.424 454.423 454.944 0 122.254-48.045 236.491-132.123 320.665-10.009 10.021-10.009 28.058 0 40.083 10.009 10.021 28.026 10.021 40.037 0 96.089-96.2 150.14-224.466 150.14-360.749-2.002-282.586-230.214-511.061-512.477-511.061z"/>
      <glyph unicode="&#xe956;"
             d="M522.29 322.805h-112.264v54.546c68.285 12.31 120.096 72.038 120.096 143.874 0 80.745-65.459 146.204-146.204 146.204s-146.204-65.459-146.204-146.204c0-71.836 51.811-131.564 120.096-143.874v-54.546h-112.264c-4.326 0-7.832-3.507-7.832-7.832v-36.551c0-4.326 3.507-7.832 7.832-7.832h112.264v-54.827c0-4.326 3.507-7.832 7.832-7.832h36.551c4.326 0 7.832 3.507 7.832 7.832v54.827h112.264c2.077 0 4.069 0.825 5.538 2.294s2.294 3.461 2.294 5.538v36.551c0 2.077-0.825 4.069-2.294 5.538s-3.461 2.294-5.538 2.294zM289.93 521.224c0 51.908 42.080 93.988 93.988 93.988s93.988-42.080 93.988-93.988c0-51.908-42.080-93.988-93.988-93.988-24.927 0-48.834 9.902-66.46 27.529s-27.529 41.533-27.529 66.46zM702.435 498.008v71.751l67.006-67.012c1.47-1.475 3.466-2.304 5.548-2.304s4.078 0.829 5.548 2.304l25.847 25.847c1.475 1.47 2.304 3.466 2.304 5.548s-0.829 4.078-2.304 5.548l-98.198 98.159c-0.293 0.471-0.636 0.909-1.025 1.305l-25.847 25.847c-3.155 3.052-8.163 3.052-11.318 0l-25.847-25.847c-0.38-0.379-0.719-0.797-1.012-1.247l-98.192-98.231c-1.475-1.47-2.304-3.466-2.304-5.548s0.829-4.078 2.304-5.548l25.847-25.847c1.47-1.475 3.466-2.304 5.548-2.304s4.078 0.829 5.548 2.304l68.331 68.377v-73.102c-68.285-12.31-120.096-72.038-120.096-143.874 0-80.745 65.459-146.204 146.204-146.204s146.204 65.459 146.204 146.204c0 71.836-51.811 131.564-120.096 143.874zM676.327 260.146c-51.908 0-93.988 42.080-93.988 93.988s42.080 93.988 93.988 93.988c51.908 0 93.988-42.080 93.988-93.988 0-24.927-9.902-48.834-27.529-66.46s-41.533-27.529-66.46-27.529z"/>
      <glyph unicode="&#xe957;"
             d="M781.665 53.181c-76.071-52.108-170.158-82.171-270.252-82.171-266.248 0-482.449 216.449-482.449 483.002 0 116.241 42.039 222.462 110.102 306.636z"/>
      <glyph unicode="&#xe958;"
             d="M511.414-63.061c-282.263 0-510.475 228.474-510.475 511.061s228.212 511.061 510.475 511.061c68.063 0 132.123-12.025 194.181-38.079 14.013-6.012 22.020-22.046 16.015-36.075-6.006-16.033-24.022-22.046-38.035-16.033-54.050 22.046-112.104 34.071-172.16 34.071-250.233 0-454.423-204.424-454.423-454.944s204.19-454.944 454.423-454.944c250.233 0 454.423 204.424 454.423 454.944 0 122.254-48.045 236.491-132.123 320.665-10.009 10.021-10.009 28.058 0 40.083 10.009 10.021 28.026 10.021 40.037 0 96.089-96.2 150.14-224.466 150.14-360.749-2.002-282.586-230.214-511.061-512.477-511.061z"/>
      <glyph unicode="&#xe959;"
             d="M533.176 214.756v218.453c23.812-3.468 47.625-6.935 67.469-6.935 59.531-3.468 115.094 13.87 154.781 48.545 35.719 38.143 55.562 90.155 47.625 138.701v10.403l-11.906 3.468c-15.875 3.468-31.75 3.468-47.625 3.468-43.656 0-87.312-6.935-127-20.805-39.687-20.805-71.437-52.013-87.312-93.623l-11.906-20.805c-3.969 13.87-11.906 27.74-19.844 38.143-15.875 24.273-35.719 41.61-59.531 55.48-47.625 27.74-103.187 41.61-158.75 41.61-15.875 0-31.75 0-47.625-3.468l-11.906-3.468v-10.403c0-20.805 0-41.61 3.969-62.415s11.906-38.143 23.812-58.948c7.937-20.805 27.781-38.143 47.625-52.013 27.781-20.805 59.531-34.675 91.281-45.078 19.844-6.935 43.656-10.403 67.469-13.87h39.687v-166.441h39.687zM461.739 412.404c-51.594 0-103.187 17.338-142.875 48.545-15.875 10.403-31.75 27.74-39.687 45.078-11.906 13.87-15.875 31.208-19.844 48.545-3.969 13.87-3.969 31.208-3.969 45.078h23.812c47.625 0 95.25-13.87 134.937-34.675 19.844-10.403 35.719-27.74 47.625-45.078s19.844-34.675 23.812-52.013c3.969-17.338 7.937-34.675 7.937-52.013-11.906 0-19.844-3.468-31.75-3.468zM731.613 495.624c-35.719-27.74-83.344-41.61-130.969-41.61-19.844 0-39.687 3.468-63.5 3.468 7.937 17.338 15.875 34.675 23.812 48.545 11.906 31.208 39.687 58.948 71.437 76.285 35.719 13.87 71.437 17.338 111.125 17.338h27.781c3.969-38.143-11.906-76.285-39.687-104.025z"/>
      <glyph unicode="&#xe95a;"
             d="M781.665 53.181c-76.071-52.108-170.158-82.171-270.252-82.171-266.248 0-482.449 216.449-482.449 483.002 0 116.241 42.039 222.462 110.102 306.636z"/>
      <glyph unicode="&#xe95b;"
             d="M511.414-63.061c-282.263 0-510.475 228.474-510.475 511.061s228.212 511.061 510.475 511.061c68.063 0 132.123-12.025 194.181-38.079 14.013-6.012 22.020-22.046 16.015-36.075-6.006-16.033-24.022-22.046-38.035-16.033-54.050 22.046-112.104 34.071-172.16 34.071-250.233 0-454.423-204.424-454.423-454.944s204.19-454.944 454.423-454.944c250.233 0 454.423 204.424 454.423 454.944 0 122.254-48.045 236.491-132.123 320.665-10.009 10.021-10.009 28.058 0 40.083 10.009 10.021 28.026 10.021 40.037 0 96.089-96.2 150.14-224.466 150.14-360.749-2.002-282.586-230.214-511.061-512.477-511.061z"/>
      <glyph unicode="&#xe95c;"
             d="M512.035 242.801c-18.701 0-33.915-15.213-33.915-33.916 0-18.701 15.215-33.916 33.915-33.916 18.702 0 33.917 15.214 33.917 33.916s-15.215 33.916-33.917 33.916z"/>
      <glyph unicode="&#xe95d;"
             d="M679.833 776.652h-335.595c-28.232 0-51.201-22.969-51.201-51.201v-563.2c0-28.233 22.969-51.201 51.201-51.201h335.594c28.232 0 51.2 22.968 51.2 51.201v563.2c0.001 28.232-22.967 51.201-51.2 51.201zM344.238 742.517h335.594c9.411 0 17.068-7.657 17.068-17.068v-421.946h-369.728v421.947c0 9.411 7.656 17.067 17.067 17.067h-0.001zM679.833 145.185h-335.595c-9.411 0-17.068 7.656-17.068 17.067v104.198h369.729v-104.198c0.001-9.411-7.656-17.066-17.067-17.066h0.001z"/>
      <glyph unicode="&#xe95e;"
             d="M511.414 448c-80.075 0-146.136 66.137-146.136 146.304s66.061 146.304 146.136 146.304c80.075 0 146.136-66.137 146.136-146.304s-64.060-146.304-146.136-146.304zM511.414 696.516c-56.052 0-102.095-46.096-102.095-102.212s46.043-102.212 102.095-102.212c56.052 0 102.095 46.096 102.095 102.212s-44.041 102.212-102.095 102.212z"/>
      <glyph unicode="&#xe95f;"
             d="M781.665 53.181c-76.071-52.108-170.158-82.171-270.252-82.171-266.248 0-482.449 216.449-482.449 483.002 0 116.241 42.039 222.462 110.102 306.636z"/>
      <glyph unicode="&#xe960;"
             d="M511.414-63.061c-282.263 0-510.475 228.474-510.475 511.061s228.212 511.061 510.475 511.061c68.063 0 132.123-12.025 194.181-38.079 14.013-6.012 22.020-22.046 16.015-36.075-6.006-16.033-24.022-22.046-38.035-16.033-54.050 22.046-112.104 34.071-172.16 34.071-250.233 0-454.423-204.424-454.423-454.944s204.19-454.944 454.423-454.944c250.233 0 454.423 204.424 454.423 454.944 0 122.254-48.045 236.491-132.123 320.665-10.009 10.021-10.009 28.058 0 40.083 10.009 10.021 28.026 10.021 40.037 0 96.089-96.2 150.14-224.466 150.14-360.749-2.002-282.586-230.214-511.061-512.477-511.061z"/>
      <glyph unicode="&#xe961;"
             d="M695.585 167.418h-368.343c-24.022 0-42.039 20.042-42.039 44.091v168.349c0 32.067 18.017 60.125 46.043 72.15l110.102 44.091c8.007 2.004 16.015 0 18.017-8.017s0-16.033-8.007-18.037l-110.102-44.091c-18.017-8.017-30.028-26.054-30.028-46.096v-168.349c0-8.017 8.007-16.033 14.013-16.033h368.343c8.007 0 14.013 8.017 14.013 16.033v168.349c0 20.042-12.011 38.079-30.028 46.096l-62.058 26.054c-8.007 2.004-12.011 12.025-8.007 18.037 2.002 8.017 12.011 10.021 18.017 8.017l62.058-26.054c28.026-12.025 46.043-40.083 46.043-72.15v-168.349c4.004-24.050-14.013-44.091-38.035-44.091z"/>
      <glyph unicode="&#xe962;"
             d="M695.585 155.393h-368.343c-30.028 0-54.050 24.050-54.050 56.116v168.349c0 36.075 22.020 68.141 54.050 84.175l112.104 44.091c14.013 6.012 28.026 0 34.032-14.029s0-28.058-14.013-34.071l-110.102-44.091c-14.013-6.012-22.020-18.037-22.020-34.071v-168.349c0-2.004 2.002-4.008 2.002-4.008h368.343c2.002 0 2.002 4.008 2.002 4.008v168.349c0 16.033-8.007 30.062-22.020 34.071l-62.058 26.054c-6.006 2.004-12.011 8.017-14.013 16.033-2.002 6.012-2.002 14.029 2.002 20.042 2.002 4.008 6.006 10.021 14.013 12.025 6.006 2.004 14.013 2.004 20.019 0l62.058-26.054c32.030-14.029 54.050-46.096 54.050-84.175v-168.349c-4.004-32.067-28.026-56.116-58.054-56.116zM447.354 486.079l-112.104-44.091c-24.022-10.021-40.037-34.071-40.037-62.129v-168.349c0-18.037 14.013-32.067 30.028-32.067h368.343c18.017 0 30.028 14.029 30.028 32.067v168.349c0 28.058-16.015 52.108-40.037 62.129l-62.058 26.054h-2.002v-2.004l62.058-26.054c22.020-8.017 38.035-32.067 38.035-56.116v-168.349c0-16.033-12.011-28.058-26.024-28.058h-366.341c-14.013 0-26.024 12.025-26.024 28.058v168.349c0 26.054 16.015 48.1 38.035 56.116l110.102 44.091c0-2.004 0 0-2.002 2.004 2.002 0 2.002 0 0 0z"/>
    </font>
</defs>
</svg>
